<mxfile host="65bd71144e">
    <diagram id="UQOHuSqJghpqluNtdEHm" name="Page-1">
        <mxGraphModel dx="734" dy="422" grid="0" gridSize="10" guides="1" tooltips="1" connect="1" arrows="1" fold="1" page="1" pageScale="1" pageWidth="850" pageHeight="1100" background="#D4D4D4" math="0" shadow="0">
            <root>
                <mxCell id="0"/>
                <mxCell id="1" parent="0"/>
                <mxCell id="2" value="MyInteger" style="swimlane;fontStyle=1;align=center;verticalAlign=top;childLayout=stackLayout;horizontal=1;startSize=26;horizontalStack=0;resizeParent=1;resizeParentMax=0;resizeLast=0;collapsible=1;marginBottom=0;labelBackgroundColor=default;labelBorderColor=default;html=1;" parent="1" vertex="1">
                    <mxGeometry x="210" y="180" width="330" height="230" as="geometry"/>
                </mxCell>
                <mxCell id="3" value="- value: int" style="text;strokeColor=none;fillColor=none;align=left;verticalAlign=top;spacingLeft=4;spacingRight=4;overflow=hidden;rotatable=0;points=[[0,0.5],[1,0.5]];portConstraint=eastwest;labelBackgroundColor=default;labelBorderColor=default;html=1;" parent="2" vertex="1">
                    <mxGeometry y="26" width="330" height="26" as="geometry"/>
                </mxCell>
                <mxCell id="4" value="" style="line;strokeWidth=1;fillColor=none;align=left;verticalAlign=middle;spacingTop=-1;spacingLeft=3;spacingRight=3;rotatable=0;labelPosition=right;points=[];portConstraint=eastwest;labelBackgroundColor=default;labelBorderColor=default;html=1;" parent="2" vertex="1">
                    <mxGeometry y="52" width="330" height="8" as="geometry"/>
                </mxCell>
                <mxCell id="5" value="+ __init__(self, value : int): None&lt;br&gt;&lt;br&gt;+ getValue(self, value: int): None&lt;br&gt;+ setValue(self, value : int): None&lt;br&gt;+ iseven(self): bool&lt;br&gt;+ isodd(self): bool&lt;br&gt;+ isprime(self): bool&lt;br&gt;+ add(self, other: MyInteger): int&lt;br&gt;+ sub(self, other: MyInteger): int&lt;br&gt;+ __eq__(self, other : MyInteger):bool&lt;br&gt;+ __gt__(self, other : MyInteger):bool" style="text;strokeColor=none;fillColor=none;align=left;verticalAlign=top;spacingLeft=4;spacingRight=4;overflow=hidden;rotatable=0;points=[[0,0.5],[1,0.5]];portConstraint=eastwest;labelBackgroundColor=default;labelBorderColor=default;html=1;" parent="2" vertex="1">
                    <mxGeometry y="60" width="330" height="170" as="geometry"/>
                </mxCell>
            </root>
        </mxGraphModel>
    </diagram>
</mxfile>